<svg xmlns="http://www.w3.org/2000/svg" xmlns:xlink="http://www.w3.org/1999/xlink" width="1080" zoomAndPan="magnify" viewBox="0 0 810 809.999993" height="1080" preserveAspectRatio="xMidYMid meet" version="1.0"><defs><clipPath id="cc9d2c5605"><path d="M 7.761719 3.882812 L 810 3.882812 L 810 806.117188 L 7.761719 806.117188 Z M 7.761719 3.882812 " clip-rule="nonzero"/></clipPath><clipPath id="a383f5b027"><path d="M 408.882812 3.882812 C 187.347656 3.882812 7.761719 183.46875 7.761719 405 C 7.761719 626.53125 187.347656 806.117188 408.882812 806.117188 C 630.414062 806.117188 810 626.53125 810 405 C 810 183.46875 630.414062 3.882812 408.882812 3.882812 Z M 408.882812 3.882812 " clip-rule="nonzero"/></clipPath><clipPath id="744fd22684"><path d="M 0.761719 0.882812 L 803 0.882812 L 803 803.117188 L 0.761719 803.117188 Z M 0.761719 0.882812 " clip-rule="nonzero"/></clipPath><clipPath id="189b0dd187"><path d="M 401.882812 0.882812 C 180.347656 0.882812 0.761719 180.46875 0.761719 402 C 0.761719 623.53125 180.347656 803.117188 401.882812 803.117188 C 623.414062 803.117188 803 623.53125 803 402 C 803 180.46875 623.414062 0.882812 401.882812 0.882812 Z M 401.882812 0.882812 " clip-rule="nonzero"/></clipPath><clipPath id="d258640012"><rect x="0" width="803" y="0" height="804"/></clipPath><clipPath id="446dbf2535"><path d="M 147.464844 143.582031 L 670.214844 143.582031 L 670.214844 666.332031 L 147.464844 666.332031 Z M 147.464844 143.582031 " clip-rule="nonzero"/></clipPath></defs><g clip-path="url(#cc9d2c5605)"><g clip-path="url(#a383f5b027)"><g transform="matrix(1, 0, 0, 1, 7, 3)"><g clip-path="url(#d258640012)"><g clip-path="url(#744fd22684)"><g clip-path="url(#189b0dd187)"><path fill="#4e73df" d="M 0.761719 0.882812 L 803 0.882812 L 803 803.117188 L 0.761719 803.117188 Z M 0.761719 0.882812 " fill-opacity="1" fill-rule="nonzero"/></g></g></g></g></g></g><g clip-path="url(#446dbf2535)"><path fill="#ffffff" d="M 506.910156 241.613281 C 506.910156 187.472656 463.023438 143.582031 408.878906 143.582031 C 354.738281 143.582031 310.851562 187.472656 310.851562 241.613281 C 310.851562 295.757812 354.738281 339.644531 408.878906 339.644531 C 463.023438 339.644531 506.910156 295.757812 506.910156 241.613281 Z M 385.996094 389.785156 C 325.410156 352.695312 227.277344 342.503906 177.894531 339.695312 C 161.300781 338.757812 147.464844 351.398438 147.464844 367.359375 L 147.464844 594.875 C 147.464844 609.507812 159.300781 621.710938 174.515625 622.496094 C 219.097656 624.835938 309.296875 633.402344 371.640625 664.800781 C 381.207031 669.621094 392.550781 663.054688 392.550781 652.679688 L 392.550781 401.488281 C 392.542969 396.71875 390.183594 392.347656 385.996094 389.785156 Z M 639.867188 339.695312 C 590.492188 342.496094 492.351562 352.695312 431.773438 389.785156 C 427.589844 392.347656 425.230469 396.890625 425.230469 401.660156 L 425.230469 652.652344 C 425.230469 663.054688 436.605469 669.632812 446.203125 664.800781 C 508.535156 633.433594 598.683594 624.863281 643.257812 622.527344 C 658.472656 621.730469 670.308594 609.527344 670.308594 594.894531 L 670.308594 367.359375 C 670.296875 351.398438 656.460938 338.757812 639.867188 339.695312 Z M 639.867188 339.695312 " fill-opacity="1" fill-rule="nonzero"/></g></svg>